<?xml version="1.0" encoding="UTF-8"?>
<svg id="Logos" xmlns="http://www.w3.org/2000/svg" viewBox="0 0 576 409.02">
  <defs>
    <style>
      .cls-1 {
        fill: #7e3eee;
      }

      .cls-1, .cls-2 {
        stroke-width: 0px;
      }

      .cls-2 {
        fill: #fff;
      }
    </style>
  </defs>
  <g>
    <path class="cls-2" d="M271.92,228.83c-14.49,0-26.16-8.91-26.16-25.17s11.67-25.17,26.16-25.17c10.96,0,16.26,4.6,16.26,4.6l-4.24,13.43s-4.95-4.24-10.96-4.24-11.17,3.54-11.17,11.17,5.51,10.96,11.17,10.96,9.54-2.33,11.67-4.45l4.59,12.72c-1.77,1.77-6.72,6.15-17.32,6.15Z"/>
    <path class="cls-2" d="M307.98,191.93l-.21,4.6c2.33-3.89,5.16-5.3,9.05-5.3,2.47,0,3.54.71,3.54.71l-.71,14.49h-.71c-.71-.35-2.47-1.06-4.6-1.06s-3.96.99-4.95,2.33c-.99,1.27-1.42,3.32-1.42,6.15v14.14h-15.91v-36.06h15.91Z"/>
    <path class="cls-2" d="M341.35,228.83c-11.45,0-20.29-6.43-20.29-18.81s9.19-18.81,20.5-18.81,19.09,7.07,19.09,18.03c0,2.12-.21,4.45-.21,4.45h-23.68c.57,3.32,4.1,4.03,6.93,4.03s6.72-.71,9.9-2.83l6.01,7.78c-1.77,1.41-6.72,6.15-18.24,6.15ZM341.35,201.12c-2.62,0-4.38,1.77-4.6,4.24h9.19c-.14-2.47-1.91-4.24-4.6-4.24Z"/>
    <path class="cls-2" d="M376.83,228.83c-6.72,0-13.79-2.97-13.79-11.81s8.91-10.89,14.14-11.1l8.34-.35v-.35c0-1.98-1.62-3.39-5.87-3.39s-8.84,1.77-11.31,3.18l-3.89-10.04c3.54-1.62,9.9-3.75,17.32-3.75s11.67,1.42,14.85,4.24c3.18,2.83,4.81,6.72,4.81,12.73v19.79h-15.06l-.35-3.18c-1.77,1.77-4.59,4.03-9.19,4.03ZM378.95,216.32c0,2.12,1.77,2.83,3.54,2.83s2.83-1.06,3.18-1.41v-4.46l-3.18.21c-1.7.07-3.54.71-3.54,2.83Z"/>
    <path class="cls-2" d="M421.94,228.83c-4.59,0-7.78-1.2-9.9-3.11-2.12-1.98-3.18-5.16-3.18-10.46v-11.67h-4.95v-11.67h4.95v-8.84h15.91v8.84h7.42v11.67h-7.42v9.9c0,1.01.24,1.62.68,1.98.49.4,1.22.49,2.15.49,1.77,0,3.54-.49,3.54-.49l.71,12.16c-1.41.35-5.3,1.2-9.9,1.2Z"/>
    <path class="cls-2" d="M443.29,175.53c5.16,0,8.49,2.97,8.49,7.56s-3.32,7.56-8.49,7.56-8.48-2.97-8.48-7.56,3.39-7.56,8.48-7.56ZM451.27,191.93v36.06h-15.91v-36.06h15.91Z"/>
    <path class="cls-2" d="M470.01,191.93l5.8,18.74,5.87-18.74h16.26l-14.71,36.06h-15.2l-14.63-36.06h16.61Z"/>
    <path class="cls-2" d="M519.14,191.22c12.02,0,20.86,6.79,20.86,18.81s-8.84,18.81-20.86,18.81-20.86-6.79-20.86-18.81,8.84-18.81,20.86-18.81ZM524.09,209.81c0-3.75-1.77-6.22-4.95-6.22s-4.95,2.47-4.95,6.22,1.77,6.15,4.95,6.15,4.95-2.47,4.95-6.15Z"/>
  </g>
  <g>
    <path class="cls-2" d="M192.83,168.99c11.1.88,20.3-8.32,19.43-19.43-.69-8.74-7.77-15.81-16.5-16.5-11.1-.88-20.3,8.32-19.43,19.43.69,8.74,7.77,15.81,16.5,16.5Z"/>
    <path class="cls-1" d="M147.41,142.45c2.15-.31,4.12-.91,5.95-2.1,4.95-3.22,8.31-8.83,8.15-15.19-.14-9.84-7.88-17.07-18.07-17.55-7.38-.35-15.19.44-22.45,1.85-14.24,2.75-28.51,7.64-41.07,15.19-10.46,6.29-19.73,14.43-26.79,24.74-21.91,31.47-22.97,75.08-2.24,107.39,23.02,37.03,70.81,53.52,112.08,40.04,27.45-8.39,50.32-30.33,60.46-57.08,3.42-8.64,5.62-17.7,6.88-26.83,1.38-9.79-5.56-18.85-15.38-20.05-9.72-1.2-18.57,5.7-19.78,15.42-.4,3.27-.95,6.5-1.67,9.66-2.12,9.13-5.97,18.01-11.6,25.34-7.38,9.81-17.73,17.08-29.45,20.8-30.9,9.97-63.15-4.56-76.38-34.14-7.32-16.46-8.07-36.59.32-52.76,5.76-10.46,14.1-19.05,24.54-25.06.07-.04.15-.08.22-.12,9.87-5.58,21.02-8.5,32.36-8.7,4.04-.07,9.06-.29,13.91-.83Z"/>
  </g>
</svg>