<?xml version="1.0" encoding="UTF-8"?>
<svg id="Logos" xmlns="http://www.w3.org/2000/svg" viewBox="0 0 576 409.02">
  <defs>
    <style>
      .cls-1 {
        fill: #202046;
      }

      .cls-1, .cls-2 {
        stroke-width: 0px;
      }

      .cls-2 {
        fill: #23233d;
      }
    </style>
  </defs>
  <g>
    <path class="cls-2" d="M145.62,367.42c-17.58,0-31.73-10.81-31.73-30.53s14.15-30.53,31.73-30.53c13.29,0,19.73,5.57,19.73,5.57l-5.15,16.3s-6-5.15-13.29-5.15-13.55,4.29-13.55,13.55,6.69,13.29,13.55,13.29,11.58-2.83,14.15-5.4l5.58,15.44c-2.14,2.14-8.15,7.46-21.01,7.46Z"/>
    <path class="cls-2" d="M189.37,322.65l-.26,5.58c2.83-4.72,6.26-6.43,10.98-6.43,3,0,4.29.86,4.29.86l-.86,17.58h-.86c-.86-.43-3-1.29-5.58-1.29s-4.8,1.2-6,2.83c-1.2,1.54-1.72,4.03-1.72,7.46v17.15h-19.3v-43.74h19.3Z"/>
    <path class="cls-2" d="M229.86,367.42c-13.89,0-24.62-7.81-24.62-22.81s11.15-22.81,24.87-22.81,23.16,8.58,23.16,21.87c0,2.57-.26,5.4-.26,5.4h-28.73c.69,4.03,4.97,4.89,8.41,4.89s8.15-.86,12.01-3.43l7.29,9.43c-2.14,1.72-8.15,7.46-22.13,7.46ZM229.86,333.8c-3.17,0-5.32,2.14-5.58,5.15h11.15c-.17-3-2.32-5.15-5.58-5.15Z"/>
    <path class="cls-2" d="M272.91,367.42c-8.15,0-16.72-3.6-16.72-14.32s10.81-13.21,17.15-13.47l10.12-.43v-.43c0-2.4-1.97-4.12-7.12-4.12s-10.72,2.14-13.72,3.86l-4.72-12.18c4.29-1.97,12.01-4.55,21.01-4.55s14.15,1.72,18.01,5.15c3.86,3.43,5.83,8.15,5.83,15.44v24.02h-18.27l-.43-3.86c-2.14,2.14-5.58,4.89-11.15,4.89ZM275.49,352.24c0,2.57,2.14,3.43,4.29,3.43s3.43-1.29,3.86-1.72v-5.4l-3.86.26c-2.06.09-4.29.86-4.29,3.43Z"/>
    <path class="cls-2" d="M327.64,367.42c-5.58,0-9.43-1.46-12.01-3.77-2.57-2.4-3.86-6.26-3.86-12.69v-14.15h-6v-14.15h6v-10.72h19.3v10.72h9.01v14.15h-9.01v12.01c0,1.23.29,1.96.83,2.4.59.48,1.48.6,2.6.6,2.14,0,4.29-.6,4.29-.6l.86,14.75c-1.71.43-6.43,1.46-12.01,1.46Z"/>
    <path class="cls-2" d="M353.55,302.75c6.26,0,10.29,3.6,10.29,9.18s-4.03,9.18-10.29,9.18-10.29-3.6-10.29-9.18,4.12-9.18,10.29-9.18ZM363.24,322.65v43.74h-19.3v-43.74h19.3Z"/>
    <path class="cls-2" d="M385.97,322.65l7.03,22.73,7.12-22.73h19.73l-17.84,43.74h-18.44l-17.75-43.74h20.16Z"/>
    <path class="cls-2" d="M445.58,321.79c14.58,0,25.3,8.23,25.3,22.81s-10.72,22.81-25.3,22.81-25.3-8.23-25.3-22.81,10.72-22.81,25.3-22.81ZM451.58,344.35c0-4.55-2.14-7.55-6-7.55s-6,3-6,7.55,2.14,7.46,6,7.46,6-3,6-7.46Z"/>
  </g>
  <path class="cls-1" d="M370.48,105.16c14.41,1.14,26.35-10.8,25.21-25.21-.89-11.34-10.08-20.52-21.42-21.42-14.41-1.14-26.35,10.8-25.22,25.22.89,11.34,10.08,20.52,21.42,21.42Z"/>
  <path class="cls-1" d="M311.52,70.72c2.79-.4,5.35-1.18,7.72-2.73,6.43-4.18,10.79-11.46,10.58-19.71-.18-12.77-10.23-22.16-23.45-22.78-9.58-.45-19.72.57-29.13,2.4-18.48,3.56-37.01,9.91-53.31,19.72-13.57,8.17-25.61,18.73-34.78,32.11-28.44,40.85-29.82,97.45-2.9,139.39,29.88,48.06,91.91,69.47,145.48,51.98,35.63-10.89,65.32-39.37,78.47-74.09,4.43-11.22,7.29-22.97,8.93-34.82,1.79-12.71-7.22-24.46-19.96-26.03-12.61-1.56-24.11,7.4-25.67,20.01-.52,4.25-1.24,8.44-2.17,12.53-2.75,11.84-7.75,23.37-15.06,32.89-9.57,12.73-23.01,22.17-38.23,26.99-40.11,12.94-81.97-5.93-99.14-44.32-9.51-21.37-10.47-47.5.42-68.48,7.47-13.57,18.3-24.72,31.86-32.53.09-.05.19-.11.28-.16,12.81-7.24,27.29-11.03,42-11.3,5.25-.1,11.76-.38,18.06-1.08Z"/>
</svg>