<?xml version="1.0" encoding="UTF-8"?>
<svg id="Logos" xmlns="http://www.w3.org/2000/svg" viewBox="0 0 576 409.02">
  <defs>
    <style>
      .cls-1 {
        fill: #202046;
        stroke-width: 0px;
      }
    </style>
  </defs>
  <path class="cls-1" d="M398.33,138.74c20.56,1.62,37.59-15.41,35.97-35.97-1.27-16.17-14.38-29.28-30.55-30.55-20.56-1.62-37.59,15.41-35.97,35.97,1.28,16.17,14.38,29.28,30.55,30.55Z"/>
  <path class="cls-1" d="M314.22,89.61c3.97-.57,7.63-1.68,11.02-3.89,9.17-5.97,15.39-16.34,15.1-28.12-.26-18.21-14.59-31.61-33.45-32.5-13.66-.65-28.13.81-41.56,3.43-26.37,5.08-52.79,14.14-76.05,28.13-19.36,11.65-36.53,26.72-49.61,45.8-40.57,58.27-42.54,139.02-4.14,198.84,42.63,68.56,131.11,99.1,207.52,74.14,50.83-15.54,93.18-56.16,111.94-105.68,6.32-16.01,10.4-32.76,12.74-49.68,2.55-18.13-10.3-34.89-28.48-37.13-17.99-2.23-34.39,10.55-36.62,28.55-.75,6.06-1.77,12.04-3.1,17.88-3.92,16.9-11.05,33.34-21.49,46.92-13.66,18.16-32.83,31.62-54.53,38.5-57.21,18.45-116.93-8.45-141.42-63.22-13.56-30.48-14.94-67.75.6-97.68,10.66-19.36,26.1-35.26,45.44-46.41.13-.08.27-.15.41-.23,18.27-10.33,38.92-15.73,59.91-16.12,7.48-.14,16.77-.54,25.76-1.54Z"/>
</svg>