<?xml version="1.0" encoding="UTF-8"?>
<svg id="Logos" xmlns="http://www.w3.org/2000/svg" viewBox="0 0 576 409.02">
  <defs>
    <style>
      .cls-1 {
        fill: #202046;
      }

      .cls-1, .cls-2 {
        stroke-width: 0px;
      }

      .cls-2 {
        fill: #23233d;
      }
    </style>
  </defs>
  <g>
    <path class="cls-2" d="M271.67,229.22c-14.72,0-26.57-9.05-26.57-25.57s11.85-25.57,26.57-25.57c11.13,0,16.52,4.67,16.52,4.67l-4.31,13.64s-5.03-4.31-11.13-4.31-11.35,3.59-11.35,11.35,5.6,11.13,11.35,11.13,9.69-2.37,11.85-4.52l4.67,12.93c-1.8,1.8-6.82,6.25-17.59,6.25Z"/>
    <path class="cls-2" d="M308.29,191.73l-.22,4.67c2.37-3.95,5.24-5.39,9.19-5.39,2.51,0,3.59.72,3.59.72l-.72,14.72h-.72c-.72-.36-2.51-1.08-4.67-1.08s-4.02,1.01-5.03,2.37c-1.01,1.29-1.44,3.38-1.44,6.25v14.36h-16.16v-36.63h16.16Z"/>
    <path class="cls-2" d="M342.19,229.22c-11.63,0-20.61-6.54-20.61-19.1s9.33-19.1,20.82-19.1,19.39,7.18,19.39,18.31c0,2.15-.22,4.52-.22,4.52h-24.06c.58,3.38,4.17,4.09,7.04,4.09s6.82-.72,10.05-2.87l6.1,7.9c-1.79,1.44-6.82,6.25-18.53,6.25ZM342.19,201.06c-2.66,0-4.45,1.8-4.67,4.31h9.34c-.14-2.51-1.94-4.31-4.67-4.31Z"/>
    <path class="cls-2" d="M378.24,229.22c-6.82,0-14-3.02-14-11.99s9.05-11.06,14.36-11.27l8.47-.36v-.36c0-2.01-1.65-3.45-5.96-3.45s-8.98,1.8-11.49,3.23l-3.95-10.2c3.59-1.65,10.05-3.81,17.59-3.81s11.85,1.44,15.08,4.31c3.23,2.87,4.88,6.82,4.88,12.93v20.11h-15.3l-.36-3.23c-1.8,1.8-4.67,4.09-9.33,4.09ZM380.39,216.5c0,2.16,1.8,2.87,3.59,2.87s2.87-1.08,3.23-1.44v-4.53l-3.23.22c-1.72.07-3.59.72-3.59,2.87Z"/>
    <path class="cls-2" d="M424.05,229.22c-4.67,0-7.9-1.22-10.05-3.16-2.16-2.01-3.23-5.24-3.23-10.63v-11.85h-5.03v-11.85h5.03v-8.97h16.16v8.97h7.54v11.85h-7.54v10.05c0,1.02.24,1.64.69,2.01.49.4,1.24.5,2.18.5,1.8,0,3.59-.5,3.59-.5l.72,12.35c-1.44.36-5.39,1.22-10.05,1.22Z"/>
    <path class="cls-2" d="M445.74,175.07c5.24,0,8.62,3.02,8.62,7.68s-3.38,7.68-8.62,7.68-8.62-3.02-8.62-7.68,3.45-7.68,8.62-7.68ZM453.85,191.73v36.63h-16.16v-36.63h16.16Z"/>
    <path class="cls-2" d="M472.88,191.73l5.89,19.03,5.96-19.03h16.52l-14.94,36.63h-15.44l-14.87-36.63h16.88Z"/>
    <path class="cls-2" d="M522.79,191.01c12.21,0,21.18,6.89,21.18,19.1s-8.98,19.1-21.18,19.1-21.18-6.89-21.18-19.1,8.98-19.1,21.18-19.1ZM527.82,209.9c0-3.81-1.8-6.32-5.03-6.32s-5.03,2.51-5.03,6.32,1.79,6.25,5.03,6.25,5.03-2.51,5.03-6.25Z"/>
  </g>
  <g>
    <path class="cls-2" d="M191.33,168.43c11.28.89,20.62-8.45,19.73-19.73-.7-8.87-7.89-16.06-16.76-16.76-11.28-.89-20.62,8.45-19.73,19.73.7,8.87,7.89,16.06,16.76,16.76Z"/>
    <path class="cls-1" d="M145.19,141.47c2.18-.32,4.18-.92,6.04-2.13,5.03-3.27,8.44-8.97,8.28-15.43-.14-9.99-8.01-17.34-18.35-17.83-7.49-.35-15.43.45-22.8,1.88-14.46,2.79-28.96,7.76-41.72,15.43-10.62,6.39-20.04,14.66-27.21,25.13-22.26,31.97-23.34,76.27-2.27,109.09,23.38,37.61,71.93,54.37,113.85,40.68,27.89-8.53,51.12-30.81,61.41-57.98,3.47-8.78,5.71-17.98,6.99-27.25,1.4-9.95-5.65-19.14-15.62-20.37-9.87-1.22-18.87,5.79-20.09,15.66-.41,3.33-.97,6.61-1.7,9.81-2.15,9.27-6.06,18.29-11.79,25.74-7.49,9.96-18.01,17.35-29.92,21.12-31.39,10.12-64.15-4.64-77.58-34.68-7.44-16.72-8.2-37.17.33-53.59,5.85-10.62,14.32-19.35,24.93-25.46.07-.04.15-.08.22-.13,10.03-5.67,21.35-8.63,32.87-8.84,4.11-.07,9.2-.29,14.13-.85Z"/>
  </g>
</svg>