<?xml version="1.0" encoding="UTF-8"?>
<svg id="Logos" xmlns="http://www.w3.org/2000/svg" viewBox="0 0 576 409.02">
  <defs>
    <style>
      .cls-1 {
        fill: #7e3eee;
      }

      .cls-1, .cls-2 {
        stroke-width: 0px;
      }

      .cls-2 {
        fill: #fff;
      }
    </style>
  </defs>
  <g>
    <path class="cls-2" d="M133.63,376.12c-18.52,0-33.43-11.39-33.43-32.17s14.91-32.17,33.43-32.17c14.01,0,20.78,5.87,20.78,5.87l-5.42,17.17s-6.33-5.42-14.01-5.42-14.28,4.52-14.28,14.28,7.05,14.01,14.28,14.01,12.2-2.98,14.91-5.69l5.87,16.26c-2.26,2.26-8.58,7.86-22.14,7.86Z"/>
    <path class="cls-2" d="M179.71,328.95l-.27,5.87c2.98-4.97,6.6-6.78,11.57-6.78,3.16,0,4.52.9,4.52.9l-.9,18.52h-.9c-.9-.45-3.16-1.36-5.87-1.36s-5.06,1.26-6.33,2.98c-1.26,1.63-1.81,4.25-1.81,7.86v18.07h-20.33v-46.08h20.33Z"/>
    <path class="cls-2" d="M222.36,376.12c-14.64,0-25.93-8.22-25.93-24.04s11.75-24.04,26.21-24.04,24.4,9.04,24.4,23.04c0,2.71-.27,5.69-.27,5.69h-30.27c.72,4.25,5.24,5.15,8.86,5.15s8.58-.9,12.65-3.61l7.68,9.94c-2.26,1.81-8.58,7.86-23.31,7.86ZM222.36,340.69c-3.34,0-5.6,2.26-5.87,5.42h11.75c-.18-3.16-2.44-5.42-5.87-5.42Z"/>
    <path class="cls-2" d="M267.72,376.12c-8.58,0-17.62-3.79-17.62-15.09s11.39-13.92,18.07-14.19l10.66-.45v-.45c0-2.53-2.08-4.34-7.5-4.34s-11.29,2.26-14.46,4.07l-4.97-12.83c4.52-2.08,12.65-4.79,22.14-4.79s14.91,1.81,18.98,5.42c4.07,3.61,6.14,8.58,6.14,16.26v25.3h-19.25l-.45-4.07c-2.26,2.26-5.87,5.15-11.75,5.15ZM270.43,360.12c0,2.71,2.26,3.62,4.52,3.62s3.62-1.36,4.07-1.81v-5.69l-4.07.27c-2.17.09-4.52.9-4.52,3.61Z"/>
    <path class="cls-2" d="M325.36,376.12c-5.87,0-9.94-1.54-12.65-3.98-2.71-2.53-4.07-6.6-4.07-13.37v-14.91h-6.33v-14.91h6.33v-11.29h20.33v11.29h9.49v14.91h-9.49v12.65c0,1.29.31,2.07.87,2.53.62.51,1.56.63,2.74.63,2.26,0,4.52-.63,4.52-.63l.9,15.54c-1.81.45-6.78,1.54-12.65,1.54Z"/>
    <path class="cls-2" d="M352.65,307.98c6.6,0,10.84,3.79,10.84,9.67s-4.25,9.67-10.84,9.67-10.84-3.8-10.84-9.67,4.34-9.67,10.84-9.67ZM362.86,328.95v46.08h-20.33v-46.08h20.33Z"/>
    <path class="cls-2" d="M386.8,328.95l7.41,23.95,7.5-23.95h20.78l-18.79,46.08h-19.43l-18.71-46.08h21.24Z"/>
    <path class="cls-2" d="M449.6,328.04c15.36,0,26.66,8.67,26.66,24.04s-11.29,24.04-26.66,24.04-26.66-8.67-26.66-24.04,11.29-24.04,26.66-24.04ZM455.93,351.81c0-4.79-2.26-7.95-6.33-7.95s-6.33,3.16-6.33,7.95,2.26,7.86,6.33,7.86,6.33-3.16,6.33-7.86Z"/>
  </g>
  <path class="cls-2" d="M370.49,99.86c15.18,1.2,27.76-11.38,26.56-26.56-.94-11.94-10.62-21.62-22.56-22.56-15.18-1.2-27.76,11.38-26.56,26.56.94,11.94,10.62,21.62,22.56,22.56Z"/>
  <path class="cls-1" d="M308.38,63.58c2.93-.42,5.63-1.24,8.14-2.87,6.77-4.41,11.37-12.07,11.15-20.77-.19-13.45-10.78-23.34-24.7-24-10.09-.48-20.77.6-30.69,2.53-19.47,3.75-38.99,10.44-56.16,20.77-14.3,8.6-26.98,19.73-36.63,33.82-29.96,43.03-31.41,102.66-3.06,146.83,31.48,50.63,96.82,73.18,153.24,54.75,37.54-11.48,68.81-41.47,82.66-78.04,4.67-11.82,7.68-24.19,9.41-36.68,1.88-13.39-7.61-25.77-21.03-27.42-13.29-1.65-25.39,7.79-27.04,21.08-.55,4.48-1.3,8.89-2.29,13.2-2.9,12.48-8.16,24.62-15.87,34.65-10.08,13.41-24.24,23.35-40.27,28.43-42.25,13.63-86.35-6.24-104.43-46.68-10.01-22.51-11.03-50.03.44-72.13,7.87-14.3,19.28-26.04,33.56-34.27.1-.06.2-.11.3-.17,13.49-7.63,28.74-11.62,44.24-11.9,5.53-.1,12.39-.4,19.02-1.14Z"/>
</svg>