<?xml version="1.0" encoding="UTF-8"?>
<svg id="Layer_1" data-name="Layer 1" xmlns="http://www.w3.org/2000/svg" viewBox="0 0 415.15 159.77">
  <defs>
    <style>
      .cls-1 {
        fill: #fff;
        stroke-width: 0px;
      }
    </style>
  </defs>
  <g>
    <path class="cls-1" d="M194.33,99.92c-11.94,0-21.55-7.34-21.55-20.73s9.61-20.73,21.55-20.73c9.03,0,13.4,3.79,13.4,3.79l-3.5,11.06s-4.08-3.49-9.03-3.49-9.2,2.91-9.2,9.2,4.54,9.03,9.2,9.03,7.86-1.92,9.61-3.67l3.78,10.48c-1.46,1.46-5.53,5.07-14.27,5.07Z"/>
    <path class="cls-1" d="M224.03,69.52l-.17,3.79c1.92-3.2,4.25-4.37,7.45-4.37,2.04,0,2.91.58,2.91.58l-.58,11.94h-.58c-.58-.29-2.04-.87-3.79-.87s-3.26.82-4.08,1.92c-.82,1.05-1.17,2.74-1.17,5.07v11.65h-13.1v-29.7h13.1Z"/>
    <path class="cls-1" d="M251.52,99.92c-9.43,0-16.71-5.3-16.71-15.49s7.57-15.49,16.89-15.49,15.72,5.82,15.72,14.85c0,1.75-.17,3.67-.17,3.67h-19.51c.47,2.74,3.38,3.32,5.71,3.32s5.53-.58,8.15-2.33l4.95,6.41c-1.45,1.16-5.53,5.07-15.02,5.07ZM251.52,77.09c-2.16,0-3.61,1.46-3.79,3.49h7.57c-.12-2.04-1.57-3.49-3.79-3.49Z"/>
    <path class="cls-1" d="M280.75,99.92c-5.53,0-11.36-2.45-11.36-9.73s7.34-8.97,11.65-9.14l6.87-.29v-.29c0-1.63-1.34-2.8-4.83-2.8s-7.28,1.46-9.32,2.62l-3.2-8.27c2.91-1.34,8.15-3.09,14.27-3.09s9.61,1.17,12.23,3.49c2.62,2.33,3.96,5.53,3.96,10.48v16.31h-12.4l-.29-2.62c-1.46,1.46-3.78,3.32-7.57,3.32ZM282.5,89.61c0,1.75,1.46,2.33,2.91,2.33s2.33-.87,2.62-1.16v-3.67l-2.62.18c-1.4.06-2.91.58-2.91,2.33Z"/>
    <path class="cls-1" d="M317.9,99.92c-3.78,0-6.41-.99-8.15-2.56-1.75-1.63-2.62-4.25-2.62-8.62v-9.61h-4.08v-9.61h4.08v-7.28h13.1v7.28h6.12v9.61h-6.12v8.15c0,.83.2,1.33.56,1.63.4.33,1,.41,1.77.41,1.46,0,2.91-.41,2.91-.41l.58,10.02c-1.16.29-4.37.99-8.15.99Z"/>
    <path class="cls-1" d="M335.49,56.01c4.25,0,6.99,2.45,6.99,6.23s-2.74,6.23-6.99,6.23-6.99-2.45-6.99-6.23,2.8-6.23,6.99-6.23ZM342.07,69.52v29.7h-13.1v-29.7h13.1Z"/>
    <path class="cls-1" d="M357.5,69.52l4.78,15.43,4.83-15.43h13.4l-12.11,29.7h-12.52l-12.05-29.7h13.69Z"/>
    <path class="cls-1" d="M397.97,68.94c9.9,0,17.18,5.59,17.18,15.49s-7.28,15.49-17.18,15.49-17.18-5.59-17.18-15.49,7.28-15.49,17.18-15.49ZM402.05,84.25c0-3.09-1.46-5.12-4.08-5.12s-4.08,2.04-4.08,5.12,1.45,5.07,4.08,5.07,4.08-2.04,4.08-5.07Z"/>
  </g>
  <g>
    <path class="cls-1" d="M129.19,50.62c9.15.72,16.72-6.85,16-16-.57-7.2-6.4-13.03-13.59-13.59-9.15-.72-16.72,6.85-16,16,.57,7.2,6.4,13.03,13.59,13.59Z"/>
    <path class="cls-1" d="M91.77,28.77c1.77-.26,3.39-.75,4.9-1.73,4.08-2.66,6.85-7.27,6.72-12.51-.12-8.1-6.49-14.06-14.88-14.46-6.08-.29-12.51.36-18.49,1.52-11.73,2.26-23.49,6.29-33.83,12.52-8.61,5.18-16.25,11.89-22.07,20.38-18.05,25.93-18.92,61.85-1.84,88.46,18.96,30.5,58.33,44.09,92.32,32.98,22.61-6.91,41.45-24.99,49.8-47.02,2.81-7.12,4.63-14.58,5.67-22.1,1.13-8.07-4.58-15.52-12.67-16.52-8.01-.99-15.3,4.69-16.29,12.7-.33,2.7-.79,5.36-1.38,7.95-1.75,7.52-4.92,14.83-9.56,20.88-6.08,8.08-14.6,14.07-24.26,17.13-25.45,8.21-52.02-3.76-62.91-28.13-6.03-13.56-6.65-30.14.27-43.46,4.74-8.61,11.61-15.69,20.22-20.65.06-.03.12-.07.18-.1,8.13-4.6,17.32-7,26.65-7.17,3.33-.06,7.46-.24,11.46-.69Z"/>
  </g>
</svg>