<?xml version="1.0" encoding="UTF-8"?>
<svg id="Layer_1" data-name="Layer 1" xmlns="http://www.w3.org/2000/svg" viewBox="0 0 529.61 159.77">
  <defs>
    <style>
      .cls-1 {
        fill: #202046;
        stroke-width: 0px;
      }
    </style>
  </defs>
  <g>
    <path class="cls-1" d="M194.33,99.92c-11.94,0-21.55-7.34-21.55-20.73s9.61-20.73,21.55-20.73c9.03,0,13.4,3.79,13.4,3.79l-3.5,11.06s-4.08-3.49-9.03-3.49-9.2,2.91-9.2,9.2,4.54,9.03,9.2,9.03,7.86-1.92,9.61-3.67l3.78,10.48c-1.46,1.46-5.53,5.07-14.27,5.07Z"/>
    <path class="cls-1" d="M224.03,69.52l-.17,3.79c1.92-3.2,4.25-4.37,7.45-4.37,2.04,0,2.91.58,2.91.58l-.58,11.94h-.58c-.58-.29-2.04-.87-3.79-.87s-3.26.82-4.08,1.92c-.82,1.05-1.17,2.74-1.17,5.07v11.65h-13.1v-29.7h13.1Z"/>
    <path class="cls-1" d="M251.52,99.92c-9.43,0-16.71-5.3-16.71-15.49s7.57-15.49,16.89-15.49,15.72,5.82,15.72,14.85c0,1.75-.17,3.67-.17,3.67h-19.51c.47,2.74,3.38,3.32,5.71,3.32s5.53-.58,8.15-2.33l4.95,6.41c-1.45,1.16-5.53,5.07-15.02,5.07ZM251.52,77.09c-2.16,0-3.61,1.46-3.79,3.49h7.57c-.12-2.04-1.57-3.49-3.79-3.49Z"/>
    <path class="cls-1" d="M280.75,99.92c-5.53,0-11.36-2.45-11.36-9.73s7.34-8.97,11.65-9.14l6.87-.29v-.29c0-1.63-1.34-2.8-4.83-2.8s-7.28,1.46-9.32,2.62l-3.2-8.27c2.91-1.34,8.15-3.09,14.27-3.09s9.61,1.17,12.23,3.49c2.62,2.33,3.96,5.53,3.96,10.48v16.31h-12.4l-.29-2.62c-1.46,1.46-3.78,3.32-7.57,3.32ZM282.5,89.61c0,1.75,1.46,2.33,2.91,2.33s2.33-.87,2.62-1.16v-3.67l-2.62.18c-1.4.06-2.91.58-2.91,2.33Z"/>
    <path class="cls-1" d="M317.9,99.92c-3.78,0-6.41-.99-8.15-2.56-1.75-1.63-2.62-4.25-2.62-8.62v-9.61h-4.08v-9.61h4.08v-7.28h13.1v7.28h6.12v9.61h-6.12v8.15c0,.83.2,1.33.56,1.63.4.33,1,.41,1.77.41,1.46,0,2.91-.41,2.91-.41l.58,10.02c-1.16.29-4.37.99-8.15.99Z"/>
    <path class="cls-1" d="M335.49,56.01c4.25,0,6.99,2.45,6.99,6.23s-2.74,6.23-6.99,6.23-6.99-2.45-6.99-6.23,2.8-6.23,6.99-6.23ZM342.07,69.52v29.7h-13.1v-29.7h13.1Z"/>
    <path class="cls-1" d="M357.5,69.52l4.78,15.43,4.83-15.43h13.4l-12.11,29.7h-12.52l-12.05-29.7h13.69Z"/>
    <path class="cls-1" d="M397.97,68.94c9.9,0,17.18,5.59,17.18,15.49s-7.28,15.49-17.18,15.49-17.18-5.59-17.18-15.49,7.28-15.49,17.18-15.49ZM402.05,84.25c0-3.09-1.46-5.12-4.08-5.12s-4.08,2.04-4.08,5.12,1.45,5.07,4.08,5.07,4.08-2.04,4.08-5.07Z"/>
  </g>
  <g>
    <path class="cls-1" d="M172.79,112.94v-2.48h7.77v2.48h-2.3v7.25h-3.19v-7.25h-2.28Z"/>
    <path class="cls-1" d="M188.32,111.16c.71.49,1.2,1.34,1.2,2.4s-.31,1.69-.67,2.14c-.35.44-.74.67-.95.79l2.19,3.69h-3.66l-1.55-3.24h-.41v3.24h-3.19v-9.73h4.23c1.2,0,2.12.21,2.82.7ZM185.95,114.38c.16-.11.35-.25.35-.68s-.21-.56-.35-.66c-.14-.11-.35-.18-.7-.18h-.8v1.69h.8c.35,0,.58-.07.7-.17Z"/>
    <path class="cls-1" d="M196.09,110.46l3.38,9.73h-3.45l-.38-1.37h-2.78l-.37,1.37h-3.31l3.38-9.73h3.53ZM194.25,113.77l-.72,2.61h1.44l-.72-2.61Z"/>
    <path class="cls-1" d="M203.5,110.46l2.82,5.43s-.07-1.06-.07-1.76v-3.66h3.1v9.73h-3.31l-2.96-5.43s.07,1.06.07,1.76v3.67h-3.1v-9.73h3.46Z"/>
    <path class="cls-1" d="M211.49,116.66c.9.76,2.17,1.06,2.59,1.06s.72-.13.72-.41-.35-.39-.7-.51l-1.41-.45c-1.35-.43-2.23-1.29-2.23-2.79,0-2.24,2.02-3.2,3.99-3.2,1.3,0,2.62.46,3.47,1.17l-1.21,2.26c-.73-.65-1.8-.93-2.44-.93-.38,0-.66.13-.66.36,0,.39.72.48,1.45.72l.65.21c1.45.48,2.27,1.36,2.27,2.83,0,2.32-2.1,3.37-4.15,3.37-1.13,0-2.43-.31-3.75-1.3l1.41-2.4h0Z"/>
    <path class="cls-1" d="M225.59,110.46v2.51h-3.59v1.51h3.38v2.51h-3.38v3.2h-3.17v-9.73h6.77Z"/>
    <path class="cls-1" d="M226.03,115.33c0-3.17,2.26-5.03,5.29-5.03s5.29,1.86,5.29,5.03-2.26,5.02-5.29,5.02-5.29-1.85-5.29-5.02ZM233.39,115.26c0-1.34-.8-2.27-2.07-2.27s-2.09.93-2.09,2.27.82,2.27,2.09,2.27,2.07-.93,2.07-2.27Z"/>
    <path class="cls-1" d="M244.66,111.16c.71.49,1.2,1.34,1.2,2.4s-.31,1.69-.67,2.14c-.35.44-.74.67-.95.79l2.19,3.69h-3.66l-1.55-3.24h-.41v3.24h-3.19v-9.73h4.23c1.2,0,2.12.21,2.82.7ZM242.29,114.38c.16-.11.35-.25.35-.68s-.21-.56-.35-.66c-.14-.11-.35-.18-.7-.18h-.8v1.69h.8c.35,0,.58-.07.7-.17Z"/>
    <path class="cls-1" d="M251.22,110.46l1.23,5.29,1.24-5.29h4.09l.56,9.73h-3.13l-.11-5.57-1.27,5.57h-2.75l-1.27-5.57-.11,5.57h-3.13l.56-9.73h4.09Z"/>
    <path class="cls-1" d="M261.26,110.46h3.52l1.44,3.28,1.45-3.28h3.52l-3.38,5.92v3.81h-3.19v-3.81l-3.37-5.92Z"/>
    <path class="cls-1" d="M270.36,115.33c0-3.17,2.26-5.03,5.29-5.03s5.29,1.86,5.29,5.03-2.26,5.02-5.29,5.02-5.29-1.85-5.29-5.02ZM277.72,115.26c0-1.34-.8-2.27-2.07-2.27s-2.09.93-2.09,2.27.82,2.27,2.09,2.27,2.07-.93,2.07-2.27Z"/>
    <path class="cls-1" d="M285.39,117.22c.21.21.49.35.92.35s.71-.14.92-.35.31-.49.31-1.06v-5.71h3.21v5.57c0,1.55-.35,2.47-1.06,3.17-.71.7-1.83,1.14-3.38,1.14s-2.68-.44-3.38-1.14-1.06-1.62-1.06-3.17v-5.57h3.2v5.71c0,.58.11.85.32,1.06Z"/>
    <path class="cls-1" d="M299.16,111.16c.71.49,1.2,1.34,1.2,2.4s-.31,1.69-.67,2.14c-.35.44-.74.67-.95.79l2.19,3.69h-3.66l-1.55-3.24h-.41v3.24h-3.19v-9.73h4.23c1.2,0,2.12.21,2.82.7ZM296.79,114.38c.16-.11.35-.25.35-.68s-.21-.56-.35-.66c-.14-.11-.35-.18-.7-.18h-.8v1.69h.8c.35,0,.58-.07.7-.17Z"/>
    <path class="cls-1" d="M310.66,110.81c.7.28,1.44.99,1.44,2.12s-.72,1.89-1.37,2.14v.02c1.13.31,1.86,1.16,1.86,2.42,0,.99-.45,1.63-1.09,2.05-.64.42-1.62.63-2.54.63h-4.79v-9.73h4.02c.85,0,1.76.07,2.47.35ZM308.67,114.02c.23-.16.3-.33.3-.57,0-.25-.07-.42-.28-.56s-.35-.14-.7-.14h-.63v1.41h.63c.35,0,.49-.02.68-.14ZM309.05,117.68c.27-.18.34-.39.34-.63,0-.25-.07-.47-.33-.64-.16-.11-.31-.14-.66-.14h-1.06v1.55h1.06c.35,0,.49-.04.65-.14Z"/>
    <path class="cls-1" d="M316.95,117.22c.21.21.49.35.92.35s.71-.14.92-.35.31-.49.31-1.06v-5.71h3.21v5.57c0,1.55-.35,2.47-1.06,3.17-.71.7-1.83,1.14-3.38,1.14s-2.68-.44-3.38-1.14-1.06-1.62-1.06-3.17v-5.57h3.2v5.71c0,.58.11.85.33,1.06Z"/>
    <path class="cls-1" d="M324.37,116.66c.9.76,2.17,1.06,2.59,1.06s.72-.13.72-.41-.35-.39-.7-.51l-1.41-.45c-1.35-.43-2.23-1.29-2.23-2.79,0-2.24,2.02-3.2,3.99-3.2,1.3,0,2.62.46,3.47,1.17l-1.21,2.26c-.73-.65-1.8-.93-2.44-.93-.38,0-.66.13-.66.36,0,.39.72.48,1.45.72l.65.21c1.45.48,2.27,1.36,2.27,2.83,0,2.32-2.1,3.37-4.14,3.37-1.13,0-2.43-.31-3.75-1.3l1.41-2.4h0Z"/>
    <path class="cls-1" d="M334.9,110.46v9.73h-3.19v-9.73h3.19Z"/>
    <path class="cls-1" d="M339.77,110.46l2.82,5.43s-.07-1.06-.07-1.76v-3.66h3.1v9.73h-3.31l-2.96-5.43s.07,1.06.07,1.76v3.67h-3.1v-9.73h3.46Z"/>
    <path class="cls-1" d="M353.95,110.46v2.51h-3.74v1.06h3.52v2.5h-3.52v1.13h3.88v2.54h-7.05v-9.73h6.91Z"/>
    <path class="cls-1" d="M355.94,116.66c.9.76,2.17,1.06,2.59,1.06s.72-.13.72-.41-.35-.39-.7-.51l-1.41-.45c-1.35-.43-2.23-1.29-2.23-2.79,0-2.24,2.02-3.2,3.99-3.2,1.3,0,2.62.46,3.47,1.17l-1.21,2.26c-.73-.65-1.8-.93-2.44-.93-.38,0-.66.13-.66.36,0,.39.72.48,1.45.72l.65.21c1.45.48,2.27,1.36,2.27,2.83,0,2.32-2.1,3.37-4.14,3.37-1.13,0-2.43-.31-3.75-1.3l1.41-2.4h0Z"/>
    <path class="cls-1" d="M363.85,116.66c.9.76,2.17,1.06,2.59,1.06s.72-.13.72-.41-.35-.39-.7-.51l-1.41-.45c-1.35-.43-2.23-1.29-2.23-2.79,0-2.24,2.02-3.2,3.99-3.2,1.3,0,2.62.46,3.47,1.17l-1.21,2.26c-.73-.65-1.8-.93-2.44-.93-.38,0-.66.13-.66.36,0,.39.72.48,1.45.72l.65.21c1.45.48,2.27,1.36,2.27,2.83,0,2.32-2.1,3.37-4.14,3.37-1.13,0-2.43-.31-3.75-1.3l1.41-2.4h0Z"/>
    <path class="cls-1" d="M374.92,117.58l-1.76,4.58h-2.61l1.41-4.58h2.96Z"/>
    <path class="cls-1" d="M385.79,110.46v2.51h-3.74v1.06h3.52v2.5h-3.52v1.13h3.88v2.54h-7.05v-9.73h6.91Z"/>
    <path class="cls-1" d="M390.24,110.46v7.12h3.31v2.61h-6.49v-9.73h3.17Z"/>
    <path class="cls-1" d="M401.32,110.46v2.51h-3.74v1.06h3.52v2.5h-3.52v1.13h3.88v2.54h-7.05v-9.73h6.91Z"/>
    <path class="cls-1" d="M405.14,110.46l1.83,5.64,1.83-5.64h3.38l-3.67,9.73h-3.1l-3.67-9.73h3.38Z"/>
    <path class="cls-1" d="M417.84,110.46l3.38,9.73h-3.46l-.38-1.37h-2.78l-.37,1.37h-3.31l3.38-9.73h3.53ZM416.01,113.77l-.72,2.61h1.44l-.72-2.61Z"/>
    <path class="cls-1" d="M420.25,112.94v-2.48h7.77v2.48h-2.3v7.25h-3.19v-7.25h-2.28Z"/>
    <path class="cls-1" d="M435.65,110.46v2.51h-3.74v1.06h3.52v2.5h-3.52v1.13h3.88v2.54h-7.05v-9.73h6.91Z"/>
    <path class="cls-1" d="M438.69,110.46h3.52l1.44,3.28,1.45-3.28h3.52l-3.38,5.92v3.81h-3.19v-3.81l-3.37-5.92Z"/>
    <path class="cls-1" d="M447.8,115.33c0-3.17,2.26-5.03,5.29-5.03s5.29,1.86,5.29,5.03-2.26,5.02-5.29,5.02-5.29-1.85-5.29-5.02ZM455.16,115.26c0-1.34-.8-2.27-2.07-2.27s-2.09.93-2.09,2.27.82,2.27,2.09,2.27,2.07-.93,2.07-2.27Z"/>
    <path class="cls-1" d="M462.83,117.22c.21.21.49.35.92.35s.71-.14.92-.35.31-.49.31-1.06v-5.71h3.21v5.57c0,1.55-.35,2.47-1.06,3.17-.71.7-1.83,1.14-3.38,1.14s-2.68-.44-3.38-1.14-1.06-1.62-1.06-3.17v-5.57h3.2v5.71c0,.58.11.85.32,1.06Z"/>
    <path class="cls-1" d="M476.59,111.16c.71.49,1.2,1.34,1.2,2.4s-.31,1.69-.67,2.14c-.35.44-.74.67-.95.79l2.19,3.69h-3.66l-1.55-3.24h-.41v3.24h-3.19v-9.73h4.23c1.2,0,2.12.21,2.82.7ZM474.22,114.38c.16-.11.35-.25.35-.68s-.21-.56-.35-.66c-.14-.11-.35-.18-.7-.18h-.8v1.69h.8c.35,0,.58-.07.7-.17Z"/>
    <path class="cls-1" d="M488.1,110.81c.7.28,1.44.99,1.44,2.12s-.72,1.89-1.38,2.14v.02c1.13.31,1.87,1.16,1.87,2.42,0,.99-.45,1.63-1.09,2.05-.63.42-1.62.63-2.53.63h-4.8v-9.73h4.02c.85,0,1.76.07,2.46.35ZM486.1,114.02c.23-.16.31-.33.31-.57,0-.25-.07-.42-.28-.56s-.35-.14-.71-.14h-.63v1.41h.63c.36,0,.5-.02.68-.14ZM486.49,117.68c.27-.18.34-.39.34-.63,0-.25-.07-.47-.33-.64-.16-.11-.31-.14-.66-.14h-1.06v1.55h1.06c.35,0,.49-.04.64-.14Z"/>
    <path class="cls-1" d="M497.98,111.16c.7.49,1.2,1.34,1.2,2.4s-.32,1.69-.68,2.14c-.35.44-.74.67-.95.79l2.19,3.69h-3.67l-1.55-3.24h-.41v3.24h-3.19v-9.73h4.23c1.19,0,2.11.21,2.82.7ZM495.61,114.38c.15-.11.36-.25.36-.68s-.21-.56-.36-.66c-.14-.11-.35-.18-.7-.18h-.81v1.69h.81c.36,0,.58-.07.7-.17Z"/>
    <path class="cls-1" d="M505.75,110.46l3.38,9.73h-3.46l-.38-1.37h-2.78l-.37,1.37h-3.31l3.39-9.73h3.52ZM503.92,113.77l-.72,2.61h1.44l-.72-2.61Z"/>
    <path class="cls-1" d="M513.16,110.46l2.82,5.43s-.07-1.06-.07-1.76v-3.66h3.1v9.73h-3.31l-2.96-5.43s.07,1.06.07,1.76v3.67h-3.11v-9.73h3.46Z"/>
    <path class="cls-1" d="M527.98,111.51c.92.7,1.62,1.83,1.62,3.81s-.7,3.1-1.62,3.81c-.91.7-2.19,1.06-3.88,1.06h-3.66v-9.73h3.66c1.69,0,2.97.35,3.88,1.06ZM525.83,117.01c.28-.28.56-.71.56-1.69s-.27-1.48-.56-1.76c-.28-.28-.78-.49-1.48-.49h-.73v4.44h.73c.7,0,1.2-.21,1.48-.49Z"/>
  </g>
  <g>
    <path class="cls-1" d="M129.19,50.62c9.15.72,16.72-6.85,16-16-.57-7.2-6.4-13.03-13.59-13.59-9.15-.72-16.72,6.85-16,16,.57,7.2,6.4,13.03,13.59,13.59Z"/>
    <path class="cls-1" d="M91.77,28.77c1.77-.26,3.39-.75,4.9-1.73,4.08-2.66,6.85-7.27,6.72-12.51-.12-8.1-6.49-14.06-14.88-14.46-6.08-.29-12.51.36-18.49,1.52-11.73,2.26-23.49,6.29-33.83,12.52-8.61,5.18-16.25,11.89-22.07,20.38-18.05,25.93-18.92,61.85-1.84,88.46,18.96,30.5,58.33,44.09,92.32,32.98,22.61-6.91,41.45-24.99,49.8-47.02,2.81-7.12,4.63-14.58,5.67-22.1,1.13-8.07-4.58-15.52-12.67-16.52-8.01-.99-15.3,4.69-16.29,12.7-.33,2.7-.79,5.36-1.38,7.95-1.75,7.52-4.92,14.83-9.56,20.88-6.08,8.08-14.6,14.07-24.26,17.13-25.45,8.21-52.02-3.76-62.91-28.13-6.03-13.56-6.65-30.14.27-43.46,4.74-8.61,11.61-15.69,20.22-20.65.06-.03.12-.07.18-.1,8.13-4.6,17.32-7,26.65-7.17,3.33-.06,7.46-.24,11.46-.69Z"/>
  </g>
</svg>