<?xml version="1.0" encoding="UTF-8"?>
<svg id="Layer_1" data-name="Layer 1" xmlns="http://www.w3.org/2000/svg" viewBox="0 0 333.68 332.77">
  <defs>
    <style>
      .cls-1 {
        fill: #202046;
      }

      .cls-1, .cls-2 {
        stroke-width: 0px;
      }

      .cls-2 {
        fill: #7e3eee;
      }
    </style>
  </defs>
  <path class="cls-1" d="M269.07,105.44c19.05,1.5,34.83-14.28,33.33-33.33-1.18-14.99-13.32-27.13-28.31-28.31-19.05-1.5-34.83,14.28-33.33,33.33,1.18,14.99,13.32,27.13,28.31,28.31Z"/>
  <path class="cls-2" d="M191.14,59.92c3.68-.53,7.07-1.56,10.21-3.6,8.5-5.53,14.26-15.14,13.99-26.06-.24-16.87-13.52-29.29-30.99-30.11-12.66-.6-26.06.75-38.51,3.17-24.43,4.71-48.92,13.1-70.47,26.07-17.94,10.8-33.85,24.76-45.97,42.44-37.59,54-39.42,128.82-3.84,184.25,39.5,63.53,121.49,91.83,192.29,68.7,47.1-14.4,86.34-52.04,103.72-97.93,5.86-14.83,9.64-30.36,11.8-46.03,2.36-16.8-9.55-32.33-26.39-34.4-16.67-2.07-31.86,9.78-33.93,26.45-.69,5.62-1.64,11.16-2.87,16.57-3.64,15.66-10.24,30.9-19.91,43.48-12.65,16.83-30.42,29.3-50.53,35.68-53.01,17.1-108.35-7.83-131.04-58.58-12.57-28.24-13.84-62.78.55-90.51,9.88-17.94,24.19-32.68,42.11-43,.12-.07.25-.14.38-.21,16.93-9.57,36.07-14.58,55.51-14.93,6.94-.13,15.54-.5,23.87-1.43Z"/>
</svg>