<?xml version="1.0" encoding="UTF-8"?>
<svg id="Layer_1" data-name="Layer 1" xmlns="http://www.w3.org/2000/svg" viewBox="0 0 347.33 332.77">
  <defs>
    <style>
      .cls-1 {
        fill: #202046;
        stroke-width: 0px;
      }
    </style>
  </defs>
  <g>
    <path class="cls-1" d="M30.88,332.77c-17.11,0-30.88-10.51-30.88-29.71s13.77-29.71,30.88-29.71c12.94,0,19.19,5.42,19.19,5.42l-5.01,15.86s-5.84-5.01-12.94-5.01-13.19,4.17-13.19,13.19,6.51,12.93,13.19,12.93,11.27-2.75,13.77-5.26l5.42,15.02c-2.09,2.09-7.93,7.26-20.45,7.26Z"/>
    <path class="cls-1" d="M73.44,289.21l-.25,5.42c2.75-4.59,6.09-6.26,10.68-6.26,2.92,0,4.17.83,4.17.83l-.83,17.11h-.83c-.83-.42-2.92-1.25-5.42-1.25s-4.67,1.17-5.84,2.75c-1.17,1.5-1.67,3.92-1.67,7.26v16.69h-18.78v-42.56h18.78Z"/>
    <path class="cls-1" d="M112.83,332.77c-13.52,0-23.95-7.59-23.95-22.2s10.85-22.2,24.2-22.2,22.53,8.34,22.53,21.28c0,2.5-.25,5.26-.25,5.26h-27.96c.67,3.92,4.84,4.76,8.18,4.76s7.93-.83,11.68-3.34l7.09,9.18c-2.09,1.67-7.93,7.26-21.53,7.26ZM112.83,300.06c-3.09,0-5.17,2.09-5.42,5.01h10.85c-.17-2.92-2.25-5.01-5.42-5.01Z"/>
    <path class="cls-1" d="M154.72,332.77c-7.93,0-16.27-3.5-16.27-13.94s10.51-12.85,16.69-13.1l9.85-.42v-.42c0-2.34-1.92-4.01-6.93-4.01s-10.43,2.09-13.35,3.75l-4.59-11.85c4.17-1.92,11.68-4.42,20.45-4.42s13.77,1.67,17.52,5.01c3.76,3.34,5.67,7.93,5.67,15.02v23.37h-17.77l-.42-3.76c-2.09,2.09-5.42,4.76-10.85,4.76ZM157.22,318c0,2.5,2.09,3.34,4.17,3.34s3.34-1.25,3.76-1.67v-5.26l-3.76.25c-2,.08-4.17.83-4.17,3.34Z"/>
    <path class="cls-1" d="M207.96,332.77c-5.42,0-9.18-1.42-11.68-3.67-2.5-2.34-3.76-6.09-3.76-12.35v-13.77h-5.84v-13.77h5.84v-10.43h18.78v10.43h8.76v13.77h-8.76v11.68c0,1.19.28,1.91.81,2.34.57.47,1.44.58,2.53.58,2.09,0,4.17-.58,4.17-.58l.83,14.35c-1.67.42-6.26,1.42-11.68,1.42Z"/>
    <path class="cls-1" d="M233.17,269.85c6.09,0,10.01,3.5,10.01,8.93s-3.92,8.93-10.01,8.93-10.01-3.51-10.01-8.93,4.01-8.93,10.01-8.93ZM242.59,289.21v42.56h-18.78v-42.56h18.78Z"/>
    <path class="cls-1" d="M264.71,289.21l6.84,22.11,6.93-22.11h19.19l-17.36,42.56h-17.94l-17.27-42.56h19.61Z"/>
    <path class="cls-1" d="M322.71,288.37c14.19,0,24.62,8.01,24.62,22.2s-10.43,22.2-24.62,22.2-24.62-8.01-24.62-22.2,10.43-22.2,24.62-22.2ZM328.55,310.32c0-4.42-2.09-7.34-5.84-7.34s-5.84,2.92-5.84,7.34,2.09,7.26,5.84,7.26,5.84-2.92,5.84-7.26Z"/>
  </g>
  <path class="cls-1" d="M249.64,77.61c14.02,1.11,25.64-10.51,24.53-24.53-.87-11.03-9.81-19.97-20.84-20.84-14.02-1.11-25.64,10.51-24.53,24.53.87,11.03,9.81,19.97,20.84,20.84Z"/>
  <path class="cls-1" d="M192.28,44.1c2.71-.39,5.2-1.15,7.51-2.65,6.25-4.07,10.5-11.15,10.3-19.18-.18-12.42-9.95-21.56-22.81-22.16-9.32-.44-19.18.56-28.34,2.34-17.98,3.47-36.01,9.64-51.87,19.19-13.21,7.95-24.91,18.22-33.83,31.24-27.67,39.75-29.01,94.81-2.83,135.61,29.07,46.76,89.42,67.59,141.54,50.57,34.67-10.6,63.55-38.3,76.35-72.08,4.31-10.92,7.09-22.35,8.69-33.88,1.74-12.37-7.03-23.8-19.42-25.32-12.27-1.52-23.45,7.2-24.97,19.47-.51,4.14-1.2,8.21-2.11,12.19-2.68,11.52-7.54,22.74-14.65,32-9.31,12.39-22.39,21.57-37.19,26.26-39.02,12.59-79.75-5.76-96.45-43.12-9.25-20.79-10.19-46.21.41-66.62,7.27-13.21,17.8-24.05,30.99-31.65.09-.05.18-.1.28-.16,12.46-7.05,26.55-10.73,40.86-10.99,5.1-.09,11.44-.37,17.57-1.05Z"/>
</svg>