<?xml version="1.0" encoding="UTF-8"?>
<svg id="Layer_1" data-name="Layer 1" xmlns="http://www.w3.org/2000/svg" viewBox="0 0 431.65 361.43">
  <defs>
    <style>
      .cls-1 {
        fill: #202046;
        stroke-width: 0px;
      }
    </style>
  </defs>
  <g>
    <path class="cls-1" d="M77.6,332.77c-17.11,0-30.88-10.51-30.88-29.71s13.77-29.71,30.88-29.71c12.94,0,19.19,5.42,19.19,5.42l-5.01,15.86s-5.84-5.01-12.94-5.01-13.19,4.17-13.19,13.19,6.51,12.93,13.19,12.93,11.27-2.75,13.77-5.26l5.42,15.02c-2.09,2.09-7.93,7.26-20.45,7.26Z"/>
    <path class="cls-1" d="M120.16,289.21l-.25,5.42c2.75-4.59,6.09-6.26,10.68-6.26,2.92,0,4.17.83,4.17.83l-.83,17.11h-.83c-.83-.42-2.92-1.25-5.42-1.25s-4.67,1.17-5.84,2.75c-1.17,1.5-1.67,3.92-1.67,7.26v16.69h-18.78v-42.56h18.78Z"/>
    <path class="cls-1" d="M159.55,332.77c-13.52,0-23.95-7.59-23.95-22.2s10.85-22.2,24.2-22.2,22.53,8.34,22.53,21.28c0,2.5-.25,5.26-.25,5.26h-27.96c.67,3.92,4.84,4.76,8.18,4.76s7.93-.83,11.68-3.34l7.09,9.18c-2.09,1.67-7.93,7.26-21.53,7.26ZM159.55,300.06c-3.09,0-5.17,2.09-5.42,5.01h10.85c-.17-2.92-2.25-5.01-5.42-5.01Z"/>
    <path class="cls-1" d="M201.44,332.77c-7.93,0-16.27-3.5-16.27-13.94s10.51-12.85,16.69-13.1l9.85-.42v-.42c0-2.34-1.92-4.01-6.93-4.01s-10.43,2.09-13.35,3.75l-4.59-11.85c4.17-1.92,11.68-4.42,20.45-4.42s13.77,1.67,17.52,5.01c3.76,3.34,5.67,7.93,5.67,15.02v23.37h-17.77l-.42-3.76c-2.09,2.09-5.42,4.76-10.85,4.76ZM203.94,318c0,2.5,2.09,3.34,4.17,3.34s3.34-1.25,3.76-1.67v-5.26l-3.76.25c-2,.08-4.17.83-4.17,3.34Z"/>
    <path class="cls-1" d="M254.68,332.77c-5.42,0-9.18-1.42-11.68-3.67-2.5-2.34-3.76-6.09-3.76-12.35v-13.77h-5.84v-13.77h5.84v-10.43h18.78v10.43h8.76v13.77h-8.76v11.68c0,1.19.28,1.91.81,2.34.57.47,1.44.58,2.53.58,2.09,0,4.17-.58,4.17-.58l.83,14.35c-1.67.42-6.26,1.42-11.68,1.42Z"/>
    <path class="cls-1" d="M279.88,269.85c6.09,0,10.01,3.5,10.01,8.93s-3.92,8.93-10.01,8.93-10.01-3.51-10.01-8.93,4.01-8.93,10.01-8.93ZM289.31,289.21v42.56h-18.78v-42.56h18.78Z"/>
    <path class="cls-1" d="M311.43,289.21l6.84,22.11,6.93-22.11h19.19l-17.36,42.56h-17.94l-17.27-42.56h19.61Z"/>
    <path class="cls-1" d="M369.43,288.37c14.19,0,24.62,8.01,24.62,22.2s-10.43,22.2-24.62,22.2-24.62-8.01-24.62-22.2,10.43-22.2,24.62-22.2ZM375.27,310.32c0-4.42-2.09-7.34-5.84-7.34s-5.84,2.92-5.84,7.34,2.09,7.26,5.84,7.26,5.84-2.92,5.84-7.26Z"/>
  </g>
  <g>
    <path class="cls-1" d="M0,350.26v-3h9.41v3h-2.78v8.78h-3.86v-8.78H0Z"/>
    <path class="cls-1" d="M18.8,348.11c.85.6,1.45,1.62,1.45,2.9s-.38,2.04-.82,2.59c-.42.53-.9.81-1.15.96l2.65,4.47h-4.44l-1.88-3.93h-.5v3.93h-3.86v-11.78h5.12c1.45,0,2.56.26,3.42.85ZM15.93,352c.19-.14.43-.31.43-.82s-.26-.68-.43-.8c-.17-.13-.43-.22-.85-.22h-.97v2.05h.97c.43,0,.7-.08.85-.21Z"/>
    <path class="cls-1" d="M28.2,347.26l4.1,11.78h-4.18l-.46-1.66h-3.36l-.44,1.66h-4.01l4.1-11.78h4.27ZM25.98,351.27l-.87,3.16h1.74l-.87-3.16Z"/>
    <path class="cls-1" d="M37.16,347.26l3.42,6.57s-.09-1.28-.09-2.13v-4.44h3.76v11.78h-4.01l-3.59-6.57s.09,1.28.09,2.13v4.44h-3.76v-11.78h4.18Z"/>
    <path class="cls-1" d="M49.96,356.05c.51,0,.87-.15.87-.5s-.43-.48-.85-.61l-1.71-.55c-1.64-.52-2.7-1.56-2.7-3.38,0-2.72,2.45-3.88,4.83-3.88,1.57,0,3.18.56,4.2,1.42l-1.47,2.73c-.89-.79-2.19-1.13-2.96-1.13-.46,0-.8.15-.8.44,0,.48.88.58,1.76.87l.79.26c1.75.58,2.75,1.65,2.75,3.43,0,2.81-2.54,4.08-5.02,4.08-1.37,0-2.94-.38-4.54-1.57l1.71-2.9c1.09.92,2.63,1.28,3.14,1.28Z"/>
    <path class="cls-1" d="M63.89,347.26v3.04h-4.35v1.83h4.1v3.04h-4.1v3.88h-3.84v-11.78h8.2Z"/>
    <path class="cls-1" d="M64.41,353.16c0-3.84,2.73-6.1,6.4-6.1s6.4,2.25,6.4,6.1-2.73,6.08-6.4,6.08-6.4-2.24-6.4-6.08ZM73.32,353.08c0-1.62-.97-2.75-2.51-2.75s-2.53,1.13-2.53,2.75.99,2.75,2.53,2.75,2.51-1.13,2.51-2.75Z"/>
    <path class="cls-1" d="M86.95,348.11c.85.6,1.45,1.62,1.45,2.9s-.38,2.04-.82,2.59c-.42.53-.9.81-1.15.96l2.65,4.47h-4.44l-1.88-3.93h-.5v3.93h-3.86v-11.78h5.12c1.45,0,2.56.26,3.42.85ZM84.08,352c.19-.14.43-.31.43-.82s-.26-.68-.43-.8c-.17-.13-.43-.22-.85-.22h-.97v2.05h.97c.43,0,.7-.08.85-.21Z"/>
    <path class="cls-1" d="M94.89,347.26l1.49,6.4,1.5-6.4h4.95l.68,11.78h-3.79l-.14-6.74-1.54,6.74h-3.33l-1.54-6.74-.14,6.74h-3.79l.68-11.78h4.95Z"/>
    <path class="cls-1" d="M107.02,347.26h4.27l1.74,3.98,1.76-3.98h4.27l-4.1,7.17v4.61h-3.86v-4.61l-4.08-7.17Z"/>
    <path class="cls-1" d="M118.04,353.16c0-3.84,2.73-6.1,6.4-6.1s6.4,2.25,6.4,6.1-2.73,6.08-6.4,6.08-6.4-2.24-6.4-6.08ZM126.95,353.08c0-1.62-.97-2.75-2.51-2.75s-2.53,1.13-2.53,2.75.99,2.75,2.53,2.75,2.51-1.13,2.51-2.75Z"/>
    <path class="cls-1" d="M136.23,355.45c.26.26.6.43,1.11.43s.85-.17,1.11-.43c.26-.26.38-.6.38-1.28v-6.92h3.89v6.74c0,1.88-.43,2.99-1.28,3.84-.85.85-2.22,1.38-4.1,1.38s-3.24-.53-4.1-1.38c-.85-.85-1.28-1.96-1.28-3.84v-6.74h3.88v6.92c0,.7.14,1.02.39,1.28Z"/>
    <path class="cls-1" d="M152.88,348.11c.85.6,1.45,1.62,1.45,2.9s-.38,2.04-.82,2.59c-.42.53-.9.81-1.15.96l2.65,4.47h-4.44l-1.88-3.93h-.5v3.93h-3.86v-11.78h5.12c1.45,0,2.56.26,3.42.85ZM150.01,352c.19-.14.43-.31.43-.82s-.26-.68-.43-.8c-.17-.13-.43-.22-.85-.22h-.97v2.05h.97c.43,0,.7-.08.85-.21Z"/>
    <path class="cls-1" d="M166.8,347.68c.85.34,1.74,1.2,1.74,2.56s-.88,2.29-1.66,2.59v.02c1.37.38,2.26,1.4,2.26,2.93,0,1.2-.55,1.97-1.31,2.48-.77.51-1.96.77-3.07.77h-5.81v-11.78h4.87c1.02,0,2.13.08,2.99.43ZM164.38,351.58c.28-.19.37-.39.37-.68,0-.31-.09-.51-.34-.68-.26-.17-.43-.17-.85-.17h-.77v1.71h.77c.43,0,.6-.02.83-.17ZM164.85,356.01c.33-.22.41-.47.41-.77,0-.31-.09-.56-.4-.77-.2-.13-.37-.17-.8-.17h-1.28v1.88h1.28c.43,0,.6-.05.78-.17Z"/>
    <path class="cls-1" d="M174.4,355.45c.26.26.6.43,1.11.43s.85-.17,1.11-.43c.26-.26.38-.6.38-1.28v-6.92h3.89v6.74c0,1.88-.43,2.99-1.28,3.84-.85.85-2.22,1.38-4.1,1.38s-3.24-.53-4.1-1.38c-.85-.85-1.28-1.96-1.28-3.84v-6.74h3.88v6.92c0,.7.14,1.02.39,1.28Z"/>
    <path class="cls-1" d="M186.51,356.05c.51,0,.87-.15.87-.5s-.43-.48-.85-.61l-1.71-.55c-1.64-.52-2.7-1.56-2.7-3.38,0-2.72,2.45-3.88,4.83-3.88,1.57,0,3.18.56,4.2,1.42l-1.47,2.73c-.89-.79-2.19-1.13-2.96-1.13-.46,0-.8.15-.8.44,0,.48.88.58,1.76.87l.79.26c1.75.58,2.75,1.65,2.75,3.43,0,2.81-2.54,4.08-5.02,4.08-1.37,0-2.94-.38-4.54-1.57l1.71-2.9c1.09.92,2.63,1.28,3.14,1.28Z"/>
    <path class="cls-1" d="M196.11,347.26v11.78h-3.86v-11.78h3.86Z"/>
    <path class="cls-1" d="M202,347.26l3.42,6.57s-.09-1.28-.09-2.13v-4.44h3.76v11.78h-4.01l-3.59-6.57s.09,1.28.09,2.13v4.44h-3.76v-11.78h4.18Z"/>
    <path class="cls-1" d="M219.17,347.26v3.04h-4.52v1.28h4.27v3.02h-4.27v1.37h4.7v3.07h-8.54v-11.78h8.37Z"/>
    <path class="cls-1" d="M224.7,356.05c.51,0,.87-.15.87-.5s-.43-.48-.85-.61l-1.71-.55c-1.64-.52-2.7-1.56-2.7-3.38,0-2.72,2.45-3.88,4.83-3.88,1.57,0,3.18.56,4.2,1.42l-1.47,2.73c-.89-.79-2.19-1.13-2.96-1.13-.46,0-.8.15-.8.44,0,.48.88.58,1.76.87l.79.26c1.75.58,2.75,1.65,2.75,3.43,0,2.81-2.54,4.08-5.02,4.08-1.37,0-2.94-.38-4.54-1.57l1.71-2.9c1.09.92,2.63,1.28,3.14,1.28Z"/>
    <path class="cls-1" d="M234.27,356.05c.51,0,.87-.15.87-.5s-.43-.48-.85-.61l-1.71-.55c-1.64-.52-2.7-1.56-2.7-3.38,0-2.72,2.45-3.88,4.83-3.88,1.57,0,3.18.56,4.2,1.42l-1.47,2.73c-.89-.79-2.19-1.13-2.96-1.13-.46,0-.8.15-.8.44,0,.48.88.58,1.76.87l.79.26c1.75.58,2.75,1.65,2.75,3.43,0,2.81-2.54,4.08-5.02,4.08-1.37,0-2.94-.38-4.54-1.57l1.71-2.9c1.09.92,2.63,1.28,3.14,1.28Z"/>
    <path class="cls-1" d="M244.53,355.88l-2.13,5.55h-3.16l1.71-5.55h3.59Z"/>
    <path class="cls-1" d="M257.68,347.26v3.04h-4.52v1.28h4.27v3.02h-4.27v1.37h4.7v3.07h-8.54v-11.78h8.37Z"/>
    <path class="cls-1" d="M263.06,347.26v8.62h4.01v3.16h-7.85v-11.78h3.84Z"/>
    <path class="cls-1" d="M276.47,347.26v3.04h-4.52v1.28h4.27v3.02h-4.27v1.37h4.7v3.07h-8.54v-11.78h8.37Z"/>
    <path class="cls-1" d="M281.08,347.26l2.22,6.83,2.22-6.83h4.1l-4.44,11.78h-3.76l-4.44-11.78h4.1Z"/>
    <path class="cls-1" d="M296.45,347.26l4.1,11.78h-4.18l-.46-1.66h-3.36l-.44,1.66h-4.01l4.1-11.78h4.27ZM294.23,351.27l-.87,3.16h1.74l-.87-3.16Z"/>
    <path class="cls-1" d="M299.36,350.26v-3h9.41v3h-2.78v8.78h-3.86v-8.78h-2.77Z"/>
    <path class="cls-1" d="M317.99,347.26v3.04h-4.52v1.28h4.27v3.02h-4.27v1.37h4.7v3.07h-8.54v-11.78h8.37Z"/>
    <path class="cls-1" d="M321.66,347.26h4.27l1.74,3.98,1.76-3.98h4.27l-4.1,7.17v4.61h-3.86v-4.61l-4.08-7.17Z"/>
    <path class="cls-1" d="M332.68,353.16c0-3.84,2.73-6.1,6.4-6.1s6.4,2.25,6.4,6.1-2.73,6.08-6.4,6.08-6.4-2.24-6.4-6.08ZM341.59,353.08c0-1.62-.97-2.75-2.51-2.75s-2.53,1.13-2.53,2.75.99,2.75,2.53,2.75,2.51-1.13,2.51-2.75Z"/>
    <path class="cls-1" d="M350.87,355.45c.26.26.6.43,1.11.43s.85-.17,1.11-.43c.26-.26.38-.6.38-1.28v-6.92h3.89v6.74c0,1.88-.43,2.99-1.28,3.84-.85.85-2.22,1.38-4.1,1.38s-3.24-.53-4.1-1.38c-.85-.85-1.28-1.96-1.28-3.84v-6.74h3.88v6.92c0,.7.14,1.02.39,1.28Z"/>
    <path class="cls-1" d="M367.52,348.11c.85.6,1.45,1.62,1.45,2.9s-.38,2.04-.82,2.59c-.42.53-.9.81-1.15.96l2.65,4.47h-4.44l-1.88-3.93h-.5v3.93h-3.86v-11.78h5.12c1.45,0,2.56.26,3.42.85ZM364.65,352c.19-.14.43-.31.43-.82s-.26-.68-.43-.8c-.17-.13-.43-.22-.85-.22h-.97v2.05h.97c.43,0,.7-.08.85-.21Z"/>
    <path class="cls-1" d="M381.44,347.68c.85.34,1.74,1.2,1.74,2.56s-.88,2.29-1.66,2.59v.02c1.37.38,2.26,1.4,2.26,2.93,0,1.2-.55,1.97-1.31,2.48-.77.51-1.96.77-3.07.77h-5.81v-11.78h4.87c1.02,0,2.13.08,2.99.43ZM379.02,351.58c.28-.19.37-.39.37-.68,0-.31-.09-.51-.34-.68-.26-.17-.43-.17-.85-.17h-.77v1.71h.77c.43,0,.6-.02.83-.17ZM379.49,356.01c.33-.22.41-.47.41-.77,0-.31-.09-.56-.4-.77-.2-.13-.37-.17-.8-.17h-1.28v1.88h1.28c.43,0,.6-.05.78-.17Z"/>
    <path class="cls-1" d="M393.4,348.11c.85.6,1.45,1.62,1.45,2.9s-.38,2.04-.82,2.59c-.42.53-.9.81-1.15.96l2.65,4.47h-4.44l-1.88-3.93h-.5v3.93h-3.86v-11.78h5.12c1.45,0,2.56.26,3.42.85ZM390.53,352c.19-.14.43-.31.43-.82s-.26-.68-.43-.8c-.17-.13-.43-.22-.85-.22h-.97v2.05h.97c.43,0,.7-.08.85-.21Z"/>
    <path class="cls-1" d="M402.79,347.26l4.1,11.78h-4.18l-.46-1.66h-3.36l-.44,1.66h-4.01l4.1-11.78h4.27ZM400.57,351.27l-.87,3.16h1.74l-.87-3.16Z"/>
    <path class="cls-1" d="M411.76,347.26l3.42,6.57s-.09-1.28-.09-2.13v-4.44h3.76v11.78h-4.01l-3.59-6.57s.09,1.28.09,2.13v4.44h-3.76v-11.78h4.18Z"/>
    <path class="cls-1" d="M429.69,348.54c1.11.85,1.96,2.22,1.96,4.61s-.85,3.76-1.96,4.61c-1.11.85-2.65,1.28-4.7,1.28h-4.44v-11.78h4.44c2.05,0,3.59.43,4.7,1.28ZM427.08,355.19c.34-.34.68-.85.68-2.05s-.32-1.79-.68-2.13c-.34-.34-.94-.6-1.79-.6h-.89v5.38h.89c.85,0,1.45-.26,1.79-.6Z"/>
  </g>
  <path class="cls-1" d="M296.36,77.61c14.02,1.11,25.64-10.51,24.53-24.53-.87-11.03-9.81-19.97-20.84-20.84-14.02-1.11-25.64,10.51-24.53,24.53.87,11.03,9.81,19.97,20.84,20.84Z"/>
  <path class="cls-1" d="M239,44.1c2.71-.39,5.2-1.15,7.51-2.65,6.25-4.07,10.5-11.15,10.3-19.18-.18-12.42-9.95-21.56-22.81-22.16-9.32-.44-19.18.56-28.34,2.34-17.98,3.47-36.01,9.64-51.87,19.19-13.21,7.95-24.91,18.22-33.83,31.24-27.67,39.75-29.01,94.81-2.83,135.61,29.07,46.76,89.42,67.59,141.54,50.57,34.67-10.6,63.55-38.3,76.35-72.08,4.31-10.92,7.09-22.35,8.69-33.88,1.74-12.37-7.03-23.8-19.42-25.32-12.27-1.52-23.45,7.2-24.97,19.47-.51,4.14-1.2,8.21-2.11,12.19-2.68,11.52-7.54,22.74-14.65,32-9.31,12.39-22.39,21.57-37.19,26.26-39.02,12.59-79.75-5.76-96.45-43.12-9.25-20.79-10.19-46.21.41-66.62,7.27-13.21,17.8-24.05,30.99-31.65.09-.05.18-.1.28-.16,12.46-7.05,26.55-10.73,40.86-10.99,5.1-.09,11.44-.37,17.57-1.05Z"/>
</svg>